<svg width="387" height="400" viewBox="0 0 387 400" fill="none" xmlns="http://www.w3.org/2000/svg">
<path d="M352.203 43.3898C351.386 43.3566 350.568 43.351 349.75 43.3741H318.906V16.8678C318.907 6.26522 308.786 0 298.183 0H269.75C259.147 0 251.437 6.26522 251.437 16.8678V43.3732H135.774V16.8678C135.774 6.26522 128.063 0 117.46 0H89.0262C78.4245 0 68.3035 6.26522 68.3035 16.8678V43.3732H37.4608C17.7722 42.8243 1.36657 58.3407 0.81772 78.0284C0.794659 78.8457 0.800194 79.6648 0.833402 80.4821V359.036C0.833402 380.241 16.2548 400 37.4599 400H349.75C370.956 400 386.377 380.241 386.377 359.036V80.4821C387.183 60.8027 371.883 44.196 352.203 43.3898ZM269.75 19.2772H299.63V72.2889H269.75V19.2772ZM89.0271 19.2772H116.497V72.2889H89.0271V19.2772ZM367.1 359.036C367.1 369.639 360.353 380.723 349.75 380.723H37.4608C26.8582 380.723 20.1115 369.639 20.1115 359.036V154.217H367.1V359.036ZM367.1 80.4821V134.94H20.1106V80.4821C19.2942 71.4698 25.9386 63.5018 34.9508 62.6854C35.7847 62.6098 36.6241 62.5987 37.4599 62.6513H68.3035V73.2538C68.3035 83.8564 78.4236 91.567 89.0262 91.567H117.46C127.305 91.8373 135.503 84.075 135.774 74.2307C135.783 73.9051 135.783 73.5794 135.774 73.2538V62.6504H251.437V73.2529C251.166 83.0972 258.929 91.2958 268.773 91.5661C269.099 91.5753 269.424 91.5753 269.75 91.5661H298.184C308.787 91.5661 318.907 83.8554 318.907 73.2529V62.6504H349.75C358.782 62.0812 366.565 68.9414 367.134 77.973C367.186 78.8088 367.175 79.6482 367.1 80.4821Z" fill="#061A3A"/>
<path d="M140.111 285.783L131.437 333.976C131.093 336.043 131.433 338.167 132.404 340.024C134.872 344.74 140.696 346.564 145.412 344.096L188.786 321.446L232.159 344.096L236.496 345.06C238.587 345.097 240.629 344.416 242.279 343.132C245.16 341.028 246.642 337.506 246.135 333.975L237.46 285.782L272.641 252.048C275.158 249.328 276.072 245.49 275.051 241.928C273.753 238.635 270.828 236.259 267.34 235.663L219.147 228.433L197.46 184.578C196.515 182.626 194.939 181.049 192.987 180.105C188.196 177.785 182.432 179.787 180.111 184.578L158.424 228.433L110.231 235.663C106.743 236.258 103.819 238.635 102.521 241.928C101.5 245.49 102.414 249.328 104.93 252.048L140.111 285.783ZM166.618 246.747C169.644 246.295 172.208 244.28 173.364 241.446L188.786 210.603L204.207 241.446C205.364 244.28 207.927 246.295 210.954 246.747L245.171 251.566L220.592 275.181C218.303 277.447 217.229 280.668 217.7 283.855L223.483 318.072L193.122 301.687L188.785 300.723L184.447 301.687L154.086 318.072L159.869 283.855C160.341 280.668 159.267 277.447 156.977 275.181L132.399 251.566L166.618 246.747Z" fill="#061A3A"/>
</svg>
