<svg version="1.2" xmlns="http://www.w3.org/2000/svg" viewBox="0 0 123 46" width="123" height="46">
	<title>logo-svg</title>
	<style>
		.s0 { fill: #ffffff } 
	</style>
	<path id="Layer" fill-rule="evenodd" class="s0" d="m73.3 29.7q-1.9 2.3-5 2.3-1 0-2-0.4-1-0.5-1.8-1.2-0.7-0.8-1.2-1.8-0.4-1.1-0.4-2.4 0-1.2 0.5-2.2 0.5-1.1 1.3-1.8 0.9-0.8 1.9-1.2 1.1-0.4 2.2-0.4 0.7 0 1.4 0.1 0.6 0.2 1.2 0.6 0.5 0.3 0.8 0.8 0.4 0.6 0.4 1.3 0 1.2-0.5 1.9-0.6 0.8-1.4 1.3-0.8 0.5-1.8 0.8-0.9 0.3-1.8 0.6 0 0.9 0.7 1.7 0.8 0.8 1.5 0.8 1 0 1.6-0.5 0.8-0.5 1.4-1.2zm-6.4-3.2q0.6-0.1 1.3-0.3 0.7-0.3 1.4-0.6 0.6-0.4 1-0.9 0.5-0.5 0.5-1.2 0-0.8-0.6-1.1-0.5-0.3-1.1-0.3-0.9 0-1.7 1.1-0.8 1.2-0.8 3.3z"/>
	<path id="Layer" fill-rule="evenodd" class="s0" d="m89.9 29q0 1.2-0.8 2.1-0.9 0.8-2.1 0.8-1.3 0-2.1-0.9-0.8-0.8-0.8-2.1v-5.8q0-0.5-0.4-0.7-0.3-0.2-0.7-0.2-0.3 0-0.7 0.1-0.4 0.2-0.9 0.5-0.4 0.3-0.7 0.8-0.3 0.5-0.3 1.2v7h-3.4v-9.3q0-0.3-0.3-0.3-0.3 0-0.5 0.5-0.2 0.4-0.3 0.8h-1.4q0-1.2 0.8-2.1 0.9-0.8 2.1-0.8 2 0 2.7 1.8 0.7-0.8 1.8-1.3 1-0.5 2.1-0.5 1.2 0 1.9 0.3c0.4 0.2 0.8 0.6 1 0.9q0.4 0.5 0.5 1.2 0.2 0.6 0.2 1.1 0 0.5-0.1 1.3 0 0.8 0 1.7 0 0.8 0 1.6 0 0.8 0 1.2 0 0.4 0.2 0.4 0.4 0 0.5-0.6 0.2-0.5 0.2-0.7z"/>
	<path id="Layer" fill-rule="evenodd" class="s0" d="m97.6 39.6q0 1.4-1.1 2.4-1 1-2.4 1-1.4 0-2.4-1l1-1q0.4 0.2 0.7 0.4 0.2 0.1 0.8 0.1v-20.9h3.4v19z"/>
	<path id="Layer" fill-rule="evenodd" class="s0" d="m98.1 14.4q0 1-0.7 1.6-0.6 0.6-1.6 0.6-0.9 0-1.5-0.6-0.6-0.7-0.6-1.6 0-0.9 0.6-1.5 0.6-0.7 1.5-0.7 1 0 1.6 0.6 0.7 0.7 0.7 1.6z"/>
	<path id="Layer" fill-rule="evenodd" class="s0" d="m111.9 29h1.3q0 1.3-0.8 2.1-0.9 0.8-2.2 0.8-0.7 0-1.3-0.4-0.6-0.3-1-0.9-1.3 1.3-3 1.3-1.1 0-2.1-0.4-0.9-0.5-1.6-1.3-0.7-0.8-1-1.8-0.4-1-0.4-2.1 0.1-1 0.4-2 0.3-1.1 1-1.9 0.6-0.8 1.5-1.3 0.9-0.5 2.1-0.5 0.7 0 1.4 0.2 0.7 0.2 1.2 0.6v-0.5h3.5v9.1q0 0.3 0.2 0.3 0.4 0 0.6-0.5 0.1-0.4 0.2-0.8zm-4.5-5.6q-0.2-0.6-0.8-0.9-0.6-0.3-0.9-0.3-0.6 0-1 0.3-0.4 0.4-0.7 1-0.2 0.6-0.3 1.4-0.1 0.7-0.1 1.4 0 0.7 0.1 1.4 0.1 0.7 0.3 1.3 0.3 0.6 0.7 0.9 0.4 0.4 1 0.4 0.5 0 1-0.4 0.4-0.4 0.7-0.8z"/>
	<path id="Layer" fill-rule="evenodd" class="s0" d="m120 4.8q-0.6-0.6-1.5-0.6v25.8q0 0.2 0.2 0.2 0.3 0 0.6-0.5 0.2-0.5 0.2-0.8h1.4q0 1.3-0.8 2.1-0.8 0.9-2.1 0.9-1.2 0-2.1-0.9-0.8-0.8-0.8-2.1v-22.7q0-1.5 1-2.5 1-1 2.5-1 1.4 0 2.4 1z"/>
	<path id="Layer" fill-rule="evenodd" class="s0" d="m43.5 4.2h-2.9v-1.5h9.3v1.5h-2.3l8.5 22.3q1.3-2.4 2.5-4.8 1.2-2.4 2.4-4.8 0.4-0.9 0.9-1.8 0.5-0.9 0.9-1.9 0.5-0.9 0.7-2 0.3-1 0.3-2.1 0-2.9-1.6-4.8-1.6-1.8-4.6-1.8-0.8 0-1.7 0.2-0.9 0.3-1.8 0.8-0.8 0.6-1.3 1.3-0.6 0.8-0.6 1.7v0.2q1.3 0 2 0.8 0.7 0.7 0.7 1.6 0 0.7-0.4 1.2-0.4 0.5-1.1 0.5-0.7-0.1-1.2-0.5-0.5-0.4-0.8-1-0.3-0.6-0.5-1.4-0.1-0.7-0.1-1.2 0-1.3 0.6-2.3 0.5-1.1 1.5-1.8 1-0.8 2.2-1.2 1.1-0.4 2.3-0.4 3.6 0 5.7 2.2 2.1 2.1 2.1 5.7 0 2.9-1.3 5.4l-9.6 18.6z"/>
	<path id="Layer" fill-rule="evenodd" class="s0" d="m36.5 33.5q-0.6 2.5-2.2 3.9-1.6 1.4-4.2 1.4-2.3 0-5-1.1-2.8-1-5.7-2.4-2.8-1.5-5.5-3-2.7-1.5-4.8-2.6-1.1 1.3-2.6 2.1-1.6 0.8-3.3 0.8-1.2 0-2.2-0.7-1-0.8-1-2.2 0-1.5 1.1-2.3 1.1-0.9 2.5-0.9 1 0 2 0.3 1 0.2 2 0.6 0.3-1 0.4-2.3 0.1-1.4 0.1-2.7 0-1 0-2 0-1 0-1.8v-7.7q0-1.7 0.5-3.3 0.5-1.6 1.5-2.8 1-1.3 2.4-2 1.4-0.8 3.2-0.8 1.1 0 2.2 0.4 1.1 0.3 2 1 0.8 0.7 1.3 1.6 0.5 1 0.5 2.3 0 0.5-0.2 1-0.1 0.5-0.5 1-0.3 0.4-0.8 0.7-0.5 0.3-1 0.3-1 0-1.8-0.7-0.7-0.7-0.7-1.7 0-0.7 0.5-1.1 0.4-0.3 1.1-0.3 0.6 0 1.1 0.4 0.5 0.3 0.8 0.8 0-0.2 0-0.3 0.1-0.2 0.1-0.4 0-0.7-0.4-1.4-0.4-0.6-1-1.1-0.6-0.5-1.4-0.7-0.8-0.3-1.5-0.3-1.4 0-2.3 0.6-0.9 0.7-1.3 1.9-0.5 1.2-0.6 2.8-0.2 1.6-0.2 3.4 0 1.6 0.1 3.4 0 1.7 0 3.5 0 2.7-0.3 5.1-0.3 2.4-1.4 4.1 1.4 0.6 3 1.4 1.7 0.8 3.5 1.7 1.8 0.9 3.7 1.7 1.9 0.9 3.7 1.6 1.8 0.6 3.5 1.1 1.7 0.4 3.1 0.4 0.8 0 1.6-0.2 0.7-0.1 1.4-0.6 0.7-0.4 1.2-0.9 0.5-0.6 0.6-1.5zm-29.4-4.8q-0.8-0.2-1.7-0.4-0.8-0.3-1.7-0.3-0.8 0-1.5 0.4-0.7 0.4-0.7 1.4 0 0.7 0.5 1.1 0.6 0.4 1.3 0.4 1.2 0 2.2-0.8 1-0.7 1.6-1.8zm24.2 0.3q0 1.3-0.8 2.1-0.9 0.8-2.2 0.8-0.7 0-1.3-0.3-0.6-0.4-1-0.9-1.3 1.2-3 1.2-1.2 0-2.1-0.4-0.9-0.5-1.6-1.3-0.7-0.7-1-1.7-0.4-1-0.4-2.1 0-1.1 0.4-2.1 0.3-1 0.9-1.9 0.7-0.8 1.6-1.3 0.9-0.5 2.1-0.5 0.6 0 1.3 0.2 0.7 0.3 1.3 0.7v-0.6h3.4v9.2q0 0.2 0.3 0.2 0.3 0 0.5-0.4 0.2-0.5 0.2-0.9h1.4zm-5.8-5.6q-0.3-0.5-0.9-0.9-0.5-0.3-0.9-0.3-0.6 0-1 0.4-0.4 0.4-0.6 1-0.3 0.6-0.4 1.3-0.1 0.8-0.1 1.5 0 0.7 0.1 1.4 0.1 0.7 0.4 1.3 0.2 0.5 0.6 0.9 0.4 0.3 1 0.3 0.5 0 1-0.4 0.4-0.3 0.8-0.7z"/>
	<path id="Layer" class="s0" d="m45.3 27.6h-8.9v-5.3h8.9z"/>
</svg>