<svg width="123" height="46" viewBox="0 0 123 46" fill="none" xmlns="http://www.w3.org/2000/svg">
<path fill-rule="evenodd" clip-rule="evenodd" d="M72.2527 28.8315C71.8606 29.2994 71.4125 29.6925 70.9458 30.0107C70.479 30.3289 69.9376 30.4786 69.3028 30.4786C68.7988 30.4786 68.3133 30.2166 67.8279 29.6738C67.3425 29.131 67.0998 28.5882 67.0998 28.0267C67.6972 27.8208 68.3133 27.6149 68.9481 27.4091C69.5829 27.1845 70.1803 26.9224 70.7218 26.5855C71.2632 26.2486 71.7113 25.8369 72.066 25.3315C72.4207 24.8262 72.5887 24.1898 72.5887 23.4224C72.5887 22.9171 72.4767 22.5053 72.234 22.1497C72.01 21.7941 71.7113 21.5133 71.3565 21.27C71.0018 21.0454 70.6097 20.8583 70.1617 20.746C69.7136 20.6337 69.2655 20.5775 68.8361 20.5775C68.0706 20.5775 67.3238 20.7272 66.6144 21.008C65.9049 21.2887 65.2701 21.6818 64.71 22.1871C64.1686 22.6925 63.7205 23.2914 63.3845 23.9839C63.0484 24.6764 62.8804 25.4438 62.8804 26.2299C62.8804 27.0909 63.0297 27.877 63.3285 28.5882C63.6272 29.2807 64.0192 29.8984 64.5233 30.385C65.0274 30.8903 65.6062 31.2834 66.2783 31.5641C66.9504 31.8449 67.6225 31.9946 68.332 31.9946C70.4044 31.9946 72.066 31.246 73.3169 29.7486L72.2527 28.8315ZM67.7719 23.254C68.276 22.4679 68.8174 22.0748 69.4149 22.0748C69.8443 22.0748 70.255 22.1871 70.6097 22.393C70.9831 22.6176 71.1512 22.9732 71.1512 23.4786C71.1512 23.9839 71.0018 24.3957 70.7031 24.7326C70.4044 25.0695 70.0496 25.3502 69.6202 25.5748C69.2095 25.7994 68.7614 26.0053 68.276 26.1738C67.7906 26.3422 67.3612 26.4732 67.0064 26.5668C67.0064 25.1444 67.2678 24.0401 67.7719 23.254Z" fill="#0071B9"/>
<path fill-rule="evenodd" clip-rule="evenodd" d="M89.8958 28.9812C89.8958 29.8235 89.6158 30.516 89.0557 31.0588C88.4956 31.6016 87.7861 31.8823 86.9646 31.8823C86.1432 31.8823 85.4524 31.6016 84.8923 31.0401C84.3322 30.4786 84.0521 29.7673 84.0521 28.9438V23.0855C84.0521 22.786 83.9401 22.5615 83.6974 22.4117C83.4734 22.262 83.212 22.1871 82.9506 22.1871C82.7826 22.1871 82.5585 22.2433 82.2785 22.3369C81.9984 22.4304 81.7184 22.5989 81.4383 22.8048C81.1583 23.0294 80.9156 23.2914 80.7102 23.6283C80.5048 23.9652 80.4115 24.3582 80.4115 24.8262V31.8262H76.9575V22.524C76.9575 22.3181 76.8642 22.2246 76.6588 22.2246C76.4534 22.2246 76.2854 22.3743 76.1547 22.6738C76.024 22.9732 75.9494 23.254 75.9494 23.516H74.4931C74.4931 22.6738 74.7732 21.9812 75.3333 21.4197C75.8933 20.8582 76.6028 20.5775 77.4243 20.5775C78.7499 20.5775 79.646 21.1764 80.1128 22.3743C80.5795 21.8315 81.1583 21.401 81.8677 21.0641C82.5585 20.7272 83.2867 20.5588 84.0148 20.5588C84.7803 20.5588 85.3964 20.6711 85.8631 20.9144C86.3299 21.139 86.7033 21.4572 86.946 21.7941C87.1887 22.1497 87.3567 22.524 87.4314 22.9545C87.5061 23.385 87.5621 23.778 87.5621 24.1336C87.5621 24.4331 87.5621 24.8636 87.5434 25.3877C87.5247 25.9304 87.5247 26.4919 87.5247 27.0721C87.5247 27.6524 87.5247 28.2139 87.5061 28.7379C87.4874 29.262 87.4874 29.655 87.4874 29.9171C87.4874 30.1417 87.5621 30.2727 87.7301 30.2727C87.9541 30.2727 88.1222 30.1042 88.2342 29.7486C88.3275 29.393 88.4022 29.131 88.4396 28.9812H89.8958Z" fill="#0071B9"/>
<path fill-rule="evenodd" clip-rule="evenodd" d="M97.6252 39.5936C97.6252 40.5294 97.2704 41.3342 96.5423 41.9893C95.8329 42.6631 95.0114 42.9813 94.1152 42.9813C93.1817 42.9813 92.3789 42.6444 91.7255 41.9893L92.7336 40.9786C92.995 41.147 93.2191 41.278 93.3871 41.3716C93.5551 41.4652 93.8165 41.5214 94.1899 41.5214V20.5775H97.6438V39.5936H97.6252Z" fill="#0071B9"/>
<path fill-rule="evenodd" clip-rule="evenodd" d="M98.0733 14.4385C98.0733 15.0561 97.8492 15.5802 97.4198 15.9919C96.9904 16.4037 96.449 16.6096 95.8142 16.6096C95.2168 16.6096 94.7127 16.385 94.2833 15.9732C93.8725 15.5427 93.6672 15.0374 93.6672 14.4385C93.6672 13.8395 93.8725 13.3342 94.2646 12.885C94.6567 12.4358 95.1794 12.2112 95.8142 12.2112C96.449 12.2112 96.9718 12.4358 97.4198 12.8475C97.8679 13.2967 98.0733 13.8208 98.0733 14.4385Z" fill="#0071B9"/>
<path fill-rule="evenodd" clip-rule="evenodd" d="M111.852 28.9813C111.852 29.2433 111.777 29.524 111.665 29.8235C111.534 30.123 111.348 30.2727 111.105 30.2727C110.956 30.2727 110.862 30.1978 110.862 30.0294V20.877H107.408V21.4198C107.035 21.1577 106.643 20.9518 106.176 20.8021C105.728 20.6524 105.261 20.5775 104.794 20.5775C104.029 20.5775 103.338 20.746 102.722 21.0829C102.106 21.4198 101.583 21.8502 101.172 22.4117C100.762 22.9545 100.426 23.5722 100.202 24.2647C99.9776 24.9572 99.8469 25.6497 99.8469 26.3422C99.8469 27.0722 99.9589 27.7834 100.202 28.4385C100.426 29.1123 100.78 29.6925 101.229 30.2166C101.677 30.7406 102.218 31.1337 102.834 31.4518C103.45 31.7513 104.141 31.901 104.906 31.901C106.045 31.901 107.054 31.4893 107.95 30.647C108.211 31.0214 108.547 31.3208 108.939 31.5454C109.331 31.77 109.779 31.901 110.246 31.901C111.105 31.901 111.833 31.639 112.393 31.0962C112.953 30.5535 113.233 29.8609 113.233 29H111.852V28.9813ZM107.408 29.131C107.203 29.393 106.96 29.6738 106.661 29.9171C106.363 30.1604 106.027 30.2914 105.653 30.2914C105.261 30.2914 104.925 30.1791 104.664 29.9358C104.402 29.7112 104.178 29.393 104.01 29.0187C103.842 28.6444 103.73 28.2326 103.656 27.7647C103.581 27.2968 103.562 26.8289 103.562 26.3609C103.562 25.8556 103.6 25.369 103.656 24.8823C103.73 24.3957 103.842 23.9465 104.01 23.5535C104.178 23.1604 104.402 22.8235 104.664 22.5615C104.925 22.3182 105.261 22.1871 105.653 22.1871C105.915 22.1871 106.232 22.2994 106.605 22.5053C106.979 22.7299 107.24 23.0294 107.408 23.385V29.131Z" fill="#0071B9"/>
<path fill-rule="evenodd" clip-rule="evenodd" d="M119.954 4.76201C119.581 4.36896 119.114 4.16308 118.498 4.16308V29.992C118.498 30.1604 118.573 30.2353 118.741 30.2353C118.946 30.2353 119.114 30.0668 119.264 29.7112C119.413 29.3556 119.488 29.0936 119.488 28.9438H120.944C120.944 29.7861 120.664 30.4786 120.104 31.0401C119.544 31.6016 118.834 31.8823 118.013 31.8823C117.173 31.8823 116.482 31.6016 115.922 31.0401C115.362 30.4786 115.082 29.7674 115.082 28.9438V6.20319C115.082 5.22992 115.418 4.40639 116.108 3.7326C116.799 3.04008 117.621 2.70319 118.573 2.70319C119.544 2.70319 120.347 3.04008 121.019 3.69516L119.954 4.76201Z" fill="#0071B9"/>
<path fill-rule="evenodd" clip-rule="evenodd" d="M43.5383 4.16308H40.6445V2.70319H49.8861V4.16308H47.6457L56.0845 26.5481C56.9433 24.9385 57.7835 23.3476 58.5863 21.7379C59.3891 20.1283 60.1919 18.5374 60.9761 16.9278C61.2748 16.2914 61.5922 15.6738 61.9282 15.0748C62.2643 14.4759 62.563 13.8583 62.8431 13.2219C63.1231 12.5855 63.3658 11.9305 63.5338 11.2379C63.7205 10.5454 63.8139 9.8342 63.8139 9.06682C63.8139 7.15773 63.2725 5.58554 62.1896 4.33153C61.1067 3.07752 59.5758 2.45987 57.6155 2.45987C57.074 2.45987 56.5139 2.55345 55.8978 2.74062C55.2817 2.92779 54.703 3.18982 54.1429 3.54543C53.6014 3.90105 53.1347 4.31281 52.7613 4.81816C52.3879 5.32351 52.2198 5.86629 52.2198 6.46522V6.70854C53.0787 6.70854 53.7508 6.95185 54.1989 7.4572C54.6469 7.96255 54.871 8.50533 54.871 9.10426C54.871 9.57217 54.7403 9.96522 54.4976 10.2834C54.2549 10.6016 53.8815 10.7513 53.4147 10.7513C52.9106 10.7513 52.4999 10.6016 52.1638 10.3208C51.8278 10.0401 51.5664 9.68447 51.361 9.27271C51.1557 8.86094 51.0063 8.41174 50.913 7.92511C50.8196 7.43848 50.7636 7.008 50.7636 6.65239C50.7636 5.81014 50.969 5.06148 51.361 4.36896C51.7531 3.67645 52.2759 3.09624 52.9293 2.59089C53.5828 2.08554 54.2922 1.69249 55.0577 1.41174C55.8231 1.13099 56.5886 0.981262 57.3541 0.981262C59.7812 0.981262 61.7042 1.71121 63.1044 3.15239C64.5047 4.61228 65.1955 6.54009 65.1955 8.93581C65.1955 10.8449 64.7661 12.623 63.8886 14.2887L54.3482 32.8556L43.5383 4.16308Z" fill="#0071B9"/>
<path fill-rule="evenodd" clip-rule="evenodd" d="M36.4999 33.492C36.0705 35.1952 35.3237 36.4866 34.2782 37.4037C33.2327 38.3021 31.8324 38.7513 30.1148 38.7513C28.5838 38.7513 26.8849 38.4144 25.0552 37.7219C23.2069 37.0294 21.3399 36.2246 19.4356 35.27C17.5312 34.3155 15.6829 33.3235 13.8906 32.3128C12.0983 31.3021 10.4926 30.4412 9.05506 29.7299C8.36427 30.5909 7.50545 31.3021 6.4786 31.8262C5.45176 32.369 4.3689 32.631 3.2487 32.631C2.38988 32.631 1.64309 32.3877 0.989637 31.8823C0.354858 31.377 0.0187988 30.6658 0.0187988 29.7299C0.0187988 28.738 0.373528 27.9519 1.10166 27.3716C1.81111 26.8101 2.63259 26.5294 3.56609 26.5294C4.25688 26.5294 4.94767 26.6043 5.58245 26.7727C6.23589 26.9412 6.88934 27.147 7.56146 27.3716C7.7855 26.6978 7.95353 25.9305 8.00954 25.0508C8.08422 24.1711 8.10289 23.2727 8.10289 22.3743C8.10289 21.7005 8.10289 21.0454 8.08422 20.3904C8.06555 19.7353 8.06555 19.1551 8.06555 18.6123V10.8636C8.06555 9.75934 8.23358 8.6925 8.58831 7.62566C8.94304 6.57753 9.44713 5.62298 10.1192 4.79945C10.7914 3.95721 11.5755 3.28341 12.509 2.77806C13.4425 2.254 14.5067 2.01068 15.7016 2.01068C16.467 2.01068 17.2138 2.12298 17.942 2.3663C18.6701 2.5909 19.3235 2.94651 19.865 3.39571C20.4064 3.84491 20.8545 4.4064 21.1905 5.04277C21.5266 5.69785 21.6946 6.42779 21.6946 7.27004C21.6946 7.60694 21.6386 7.94384 21.5266 8.29945C21.4146 8.65507 21.2465 8.97325 21.0225 9.27271C20.7985 9.57218 20.5371 9.81549 20.2197 10.0027C19.9023 10.1898 19.5662 10.2834 19.1928 10.2834C18.5207 10.2834 17.942 10.0588 17.4379 9.5909C16.9338 9.12298 16.6911 8.56148 16.6911 7.88769C16.6911 7.41977 16.8404 7.06416 17.1578 6.83956C17.4752 6.61496 17.8486 6.48394 18.278 6.48394C18.6701 6.48394 19.0435 6.61496 19.3982 6.85827C19.7529 7.10159 20.0143 7.40106 20.1637 7.73795C20.201 7.60694 20.2197 7.49464 20.2384 7.38234C20.257 7.28876 20.257 7.15774 20.257 7.02672C20.257 6.52138 20.1263 6.05346 19.865 5.62298C19.6036 5.1925 19.2489 4.81817 18.8568 4.49999C18.4647 4.1818 17.998 3.93849 17.4939 3.75132C16.9898 3.56416 16.5044 3.47057 16.0376 3.47057C15.0668 3.47057 14.2826 3.69517 13.7039 4.14437C13.1251 4.59357 12.677 5.21122 12.3783 5.99731C12.0609 6.78341 11.8742 7.70052 11.7622 8.76737C11.6689 9.83421 11.6128 10.9759 11.6128 12.1738C11.6128 13.2781 11.6315 14.4011 11.6689 15.5802C11.7062 16.7406 11.7249 17.9198 11.7249 19.0802C11.7249 20.877 11.6315 22.5802 11.4261 24.1898C11.2208 25.7995 10.754 27.1845 10.0446 28.3449C10.9407 28.7192 11.9302 29.1684 13.0318 29.7299C14.1333 30.2727 15.2908 30.8342 16.5044 31.4144C17.7179 31.9759 18.9501 32.5561 20.201 33.1176C21.4519 33.6791 22.6841 34.2032 23.8977 34.6524C25.1112 35.1016 26.2874 35.4759 27.4263 35.7567C28.5652 36.0374 29.592 36.1872 30.5255 36.1872C31.0296 36.1872 31.5337 36.131 32.0564 36.0187C32.5792 35.9064 33.046 35.7192 33.5127 35.4385C33.9608 35.1765 34.3529 34.8396 34.6889 34.4652C35.025 34.0722 35.2303 33.6043 35.3424 33.0428L36.4999 33.492ZM7.0387 28.6818C6.49727 28.5134 5.95585 28.3636 5.39575 28.2139C4.83565 28.0642 4.25688 27.9893 3.69678 27.9893C3.13668 27.9893 2.61392 28.1203 2.14717 28.3636C1.68043 28.6069 1.45639 29.0561 1.45639 29.7299C1.45639 30.1978 1.62442 30.5535 1.97914 30.8155C2.33387 31.0775 2.74461 31.2085 3.21136 31.2085C4.07018 31.2085 4.83565 30.9652 5.4891 30.4973C6.12388 29.992 6.64663 29.393 7.0387 28.6818ZM31.2536 28.9813C31.2536 29.8422 30.9736 30.5535 30.4135 31.0775C29.8534 31.6203 29.1253 31.8823 28.2664 31.8823C27.7997 31.8823 27.3703 31.77 26.9595 31.5267C26.5675 31.3021 26.2314 30.9839 25.97 30.6283C25.0739 31.4706 24.047 31.8823 22.9268 31.8823C22.1614 31.8823 21.4706 31.7326 20.8545 31.4331C20.2384 31.1337 19.6969 30.7219 19.2489 30.1978C18.8008 29.6738 18.4647 29.0936 18.222 28.4198C17.998 27.746 17.8673 27.0535 17.8673 26.3235C17.8673 25.631 17.9793 24.9385 18.222 24.246C18.446 23.5535 18.7821 22.9358 19.1928 22.393C19.6036 21.8503 20.1263 21.4011 20.7425 21.0642C21.3586 20.7273 22.0493 20.5588 22.8148 20.5588C23.2816 20.5588 23.7296 20.6337 24.1964 20.7834C24.6445 20.9331 25.0552 21.139 25.4286 21.4011V20.8583H28.8826V30.0107C28.8826 30.1791 28.9572 30.254 29.1253 30.254C29.368 30.254 29.5733 30.1043 29.6854 29.8048C29.8161 29.5053 29.8721 29.2246 29.8721 28.9626H31.2536V28.9813ZM25.4099 23.385C25.2419 23.0107 24.9805 22.7112 24.6071 22.5053C24.2337 22.2807 23.9163 22.1872 23.655 22.1872C23.2629 22.1872 22.9268 22.3182 22.6655 22.5615C22.4041 22.8048 22.18 23.1417 22.012 23.5535C21.844 23.9465 21.732 24.3957 21.6573 24.8823C21.5826 25.369 21.5639 25.8743 21.5639 26.361C21.5639 26.8289 21.6013 27.2968 21.6573 27.7647C21.732 28.2326 21.844 28.6631 22.012 29.0187C22.18 29.393 22.4041 29.6925 22.6655 29.9358C22.9268 30.1604 23.2629 30.2914 23.655 30.2914C24.0284 30.2914 24.3458 30.1604 24.6631 29.9171C24.9619 29.6738 25.2046 29.393 25.4099 29.131V23.385Z" fill="#0071B9"/>
<path d="M45.3307 22.2994H36.3691V27.5962H45.3307V22.2994Z" fill="#0071B9"/>
</svg>
